<svg xmlns="http://www.w3.org/2000/svg" width="320" height="80" viewBox="0 0 320 80"><path fill="#186891" d="M210.6 55.9c-1.2-1-2-2.4-2.3-4.4-.1-.5 0-1 .4-1.3.3-.3.8-.5 1.3-.5s.9.1 1.2.4q.45.45.6 1.2c.1 1 .5 1.6 1.2 2 .6.4 1.6.6 2.9.6h9q2.4 0 3.3-.9t.9-3.3c0-1.6-.3-2.8-.9-3.3q-.9-.9-3.3-.9H216c-2.4 0-4.3-.6-5.5-1.8s-1.8-3-1.8-5.5.6-4.3 1.8-5.5 3-1.8 5.5-1.8h8.6c2.1 0 3.8.4 4.9 1.3 1.2.9 1.9 2.3 2.1 4.1.1.5 0 1-.3 1.3s-.8.5-1.3.5-.9-.1-1.2-.4q-.45-.45-.6-1.2c-.1-.8-.5-1.4-1.1-1.7s-1.4-.5-2.6-.5H216c-1.5 0-2.6.3-3.1.8s-.8 1.6-.8 3.1.3 2.5.8 3.1 1.6.8 3.1.8h8.9c2.6 0 4.5.6 5.8 1.9 1.2 1.2 1.9 3.2 1.9 5.8s-.6 4.5-1.9 5.7c-1.2 1.3-3.2 1.9-5.8 1.9h-9c-2.3 0-4-.5-5.3-1.5m48.1-22.6c1.6 1.6 2.5 4.2 2.5 7.7v14.6c0 1.1-.6 1.7-1.7 1.7s-1.7-.6-1.7-1.7V41c0-2.6-.5-4.3-1.5-5.3s-2.7-1.5-5.3-1.5h-1.5q-4.05 0-6.3 1.2c-1.5.8-2.4 2-2.7 3.7l-.2.5v16c0 1.1-.6 1.7-1.7 1.7s-1.7-.6-1.7-1.7V20.9c0-1.1.6-1.7 1.7-1.7s1.7.6 1.7 1.7v12.7c2.2-1.8 5.2-2.6 9.2-2.6h1.5c3.5-.1 6 .7 7.7 2.3m22 20.7c2.6 0 4.3-.5 5.3-1.5s1.5-2.7 1.5-5.3V41c0-2.6-.5-4.3-1.5-5.3s-2.7-1.5-5.3-1.5h-4.5c-1.7 0-3.1.2-4 .6q-1.5.6-2.1 2.1c-.4 1-.6 2.3-.6 4.1v6.2c0 2.5.5 4.3 1.5 5.2 1 1 2.7 1.5 5.3 1.5h4.4zm-12.2.9c-1.6-1.6-2.5-4.2-2.5-7.6V41c0-3.5.8-6.1 2.5-7.7 1.6-1.6 4.2-2.4 7.7-2.4h4.5c3.5 0 6 .8 7.7 2.5 1.6 1.6 2.5 4.2 2.5 7.7v6.2c0 3.5-.8 6-2.5 7.7-1.6 1.6-4.2 2.5-7.7 2.5h-4.5c-3.5-.1-6.1-.9-7.7-2.6M316.6 41c0-2.6-.5-4.3-1.5-5.3s-2.7-1.5-5.3-1.5h-2.1q-4.2 0-6.6 1.2c-1.6.8-2.5 2.1-2.5 3.7V54h11.2c2.5 0 4.3-.5 5.3-1.5s1.5-2.7 1.5-5.3zm.9-7.6c1.6 1.6 2.5 4.2 2.5 7.7v6.2c0 3.5-.8 6-2.5 7.7-1.6 1.6-4.2 2.5-7.7 2.5h-11.2v16.9h-3.4V40.6c0-1.4.1-3.9 2.5-6.3s5.8-3.4 10.1-3.4h2.1c3.4 0 6 .8 7.6 2.5"/><path fill="#186891" d="M298.6 36.8v36.9c0 1.8-.5 2.7-1.7 2.7-1.3 0-1.7-.9-1.7-2.7V44.1m-273.9-24h-2.6C9.2 20.1 3.8 26 3.8 36.9V54h17.5c10 0 14.8-1 14.8-11.9V32c0-10.9-4.9-11.9-14.8-11.9m0 37.6H3.8v17.5H0V33.4c0-3.2 1.4-7.4 3.8-10.6s7.4-6.5 14.9-6.5h2.6c11.1 0 18.6 2.2 18.6 15.7v10c0 13.6-7.5 15.7-18.6 15.7m119.4 0c-6.6 0-8.5-2.8-8.5-11.1V2.7c0-1.8.5-2.7 1.9-2.7s1.9.9 1.9 2.7v45.5c0 4.1 1.3 5.7 5.4 5.7 1.8 0 2.7.4 2.7 2 0 1.3-.9 1.8-2.7 1.8zm6.8-9.5c0-1.9.5-2.8 1.9-2.8 1.3 0 1.9.8 1.9 2.5 0 4.3 1.3 6 5.4 6h21.4c4.1 0 5.7-3.1 5.7-7.3 0-5-2.4-8.3-5.7-8.3h-19.4c-8.5 0-11.1-5.1-11.1-11.5 0-6.6 2.8-10.6 11.1-10.6h20.2c7.8 0 8.5 5.1 8.5 9.6 0 1.8-.5 2.7-1.9 2.7-1.3 0-1.9-.8-1.9-2.5 0-4.2-1.3-6-5.4-6H157c-4.1 0-5.7 2.7-5.7 6.8 0 5 2.5 7.7 5.7 7.7h19.5c8.5 0 11 5.7 11 12 0 6.6-2.7 11-11 11H156c-7.8.2-8.5-4.8-8.5-9.3"/><path fill="#dedc0a" d="M194.6 50.1c-1.6 1.7-1.6 4.6 0 6.3.8.8 1.8 1.3 3 1.3 1.1 0 2.2-.5 3-1.3s1.2-2 1.2-3.2-.4-2.3-1.2-3.2l-3-3.2z"/><path fill="#186891" d="M3.8 39.1V76c0 1.8-.5 2.7-1.9 2.7C.4 78.7 0 77.8 0 76V37.6"/><path fill="#c8e7f3" d="M122.3 21.6c-5.7 10.7-18.2 17.4-30.2 18.8-8.6 1-15.3-2.6-23.5-4.2-7.2-1.4-15.6-1-22.5 1.5-3.7 1.3-2.7 6.8.5 6.9 1.2 2.6 2 5.8 3.7 7.6 2.2 2.4 4.4 3.5 7.2 5.1 4.2.2 8.8 1 13.6 1.7.8-1.8 2.4-3.2 4.7-3.4.7-1.2 1.8-2.1 3.2-2.5 1-1.2 2.5-2.1 4.5-2.1 2.3 0 4 1.1 5 2.8 1 .7 1.7 1.8 2.1 3 .6.3 1.2.8 1.7 1.3 6.1 1.4 21.4 2.2 32.1-12.8 1.1-3.6 1.7-11.1 1.2-15.6 1-1.4.6-1.2 1.4-2.8-3.8-4.1-2.6-9.3-4.7-5.3"/><path fill="#186891" d="M107.3 56.1c-1.8.4-3.6.6-5.3.6-7.1 0-13.8-3.3-18.2-8.7l-1.2-1.5c-.2-.2-.6-.2-.7.1l-.9 1.7c-2.5 4.4-6.7 7.8-11.9 9-1.4.3-2.8.5-4.2.5-8.4 0-16-5.8-18-14.3-.3-1.4-.5-2.8-.5-4.2 0-8.4 5.8-16 14.3-18 1.4-.3 2.8-.5 4.2-.5 4.7 0 9.2 1.8 12.5 4.9l1.4 1.3c.2.2.6.1.7-.2l.7-1.8c2.7-7 8.7-12.6 16.5-14.5 1.8-.4 3.6-.6 5.3-.6 10.6 0 20.2 7.3 22.7 18.1.4 1.8.6 3.6.6 5.3 0 10.7-7.2 20.3-18 22.8m20.8-28.8-1.7.4zC125.2 14.9 114.2 6.5 102 6.5c-2 0-4.1.2-6.1.7-8 1.9-14.4 7.2-17.8 14-.1.2-.4.3-.6.2-3.6-2.6-8-4-12.6-4-1.7 0-3.3.2-5 .6-10.1 2.4-17 11.4-17 21.4 0 1.7.2 3.3.6 5 2.4 10.1 11.4 17 21.4 17 1.7 0 3.3-.2 5-.6 5.3-1.2 9.6-4.2 12.6-8.3.2-.2.5-.2.7 0 5 4.9 11.7 7.8 18.9 7.8 2 0 4.1-.2 6.1-.7 12.4-2.9 20.8-13.9 20.8-26.1-.2-2.1-.4-4.2-.9-6.2"/></svg>